<svg width="400" height="248" viewBox="0 0 400 248" xmlns="http://www.w3.org/2000/svg"><title>Beaker Logo</title><g fill="none" fill-rule="evenodd"><path d="M3.726 238.762l.443-1.524c.4-1.316.75-2.723 1.1-4.104h.08c.36 1.368.74 2.8 1.12 4.104l.44 1.524H3.72zm4.64 5.108h2.344l-4.052-12.443H4.065L0 243.87h2.267l.964-3.362H7.4l.965 3.362zm6.774 0h3.427c3.687 0 5.954-2.15 5.954-6.28 0-4.105-2.26-6.163-6.07-6.163h-3.31v12.443zm2.215-1.798v-8.86h.95c2.516 0 3.962 1.33 3.962 4.378 0 3.06-1.446 4.495-3.96 4.495h-.952v-.013zm8.99 1.798h2.19v-5.707c.572-1.407 1.458-1.915 2.2-1.915.405 0 .653.052.965.156l.378-1.902c-.286-.13-.586-.196-1.068-.196-.99 0-1.98.665-2.645 1.89h-.078l-.157-1.655h-1.81v9.33h.025zm6.528-3.492c0 2.358.873 3.713 2.866 3.713 1.27 0 2.18-.62 3.01-1.6h.05l.17 1.37h1.78v-9.33h-2.19v6.4c-.71.91-1.25 1.29-2.07 1.29-1.01 0-1.45-.57-1.45-2.11v-5.57h-2.19v5.85h.01zm12.326 2.684c.75.65 1.57 1.03 2.39 1.03 2.07 0 4-1.85 4-5.043 0-2.9-1.36-4.76-3.68-4.76-1.03 0-2.04.54-2.82 1.21h-.08l-.16-.99h-1.81v13.03h2.19v-2.94l-.05-1.55zm.05-1.55v-4.352c.71-.704 1.37-1.043 2.06-1.043 1.4 0 2.02 1.108 2.02 2.97 0 2.112-.96 3.22-2.19 3.22-.56-.027-1.2-.235-1.89-.796zm7.44-.157c0 1.642 1.14 2.736 2.77 2.736 1.1 0 2.06-.54 2.89-1.25h.05l.17 1.03h1.78v-5.53c0-2.6-1.15-4.04-3.48-4.04-1.49 0-2.8.58-3.82 1.22l.79 1.46c.82-.49 1.69-.91 2.62-.91 1.25 0 1.66.84 1.69 1.83-3.81.43-5.49 1.49-5.49 3.48zm2.13-.17c0-.937.83-1.602 3.36-1.915v2.098c-.69.652-1.28 1.03-2.04 1.03-.78-.014-1.33-.378-1.33-1.212zm7.74.287c0 1.616.57 2.62 2.13 2.62.51 0 .9-.08 1.16-.196l-.29-1.642c-.17.04-.25.04-.34.04-.24 0-.48-.196-.48-.717v-11.154h-2.19v11.05zm10.79 2.398h2.2v-10.58h3.57v-1.863h-9.38v1.863h3.59v10.58h.01zm7.16 0h2.19v-6.528c.78-.756 1.31-1.16 2.13-1.16 1.03 0 1.46.574 1.46 2.11v5.578h2.19v-5.863c0-2.36-.87-3.714-2.87-3.714-1.28 0-2.21.665-2.99 1.407l.07-1.81v-3.467h-2.2v13.447zm9.52-4.665c0 3.088 2.02 4.886 4.6 4.886 1.18 0 2.3-.41 3.19-1l-.74-1.37c-.69.45-1.37.69-2.16.69-1.5 0-2.57-.95-2.77-2.64h5.94c.05-.23.09-.61.09-1.03 0-2.6-1.33-4.43-3.86-4.43-2.18-.01-4.3 1.85-4.3 4.9zm2.12-.834c.19-1.56 1.14-2.37 2.24-2.37 1.27 0 1.9.9 1.9 2.37h-4.14zm7.66 5.5H102v-6.52c.716-.78 1.394-1.16 1.954-1.16.99 0 1.446.58 1.446 2.11v5.58h2.19v-6.52c.715-.78 1.366-1.16 1.953-1.16.96 0 1.42.58 1.42 2.11v5.58h2.2v-5.86c0-2.36-.91-3.71-2.894-3.71-1.19 0-2.11.72-3.01 1.67-.44-1.04-1.21-1.66-2.59-1.66-1.16 0-2.07.67-2.85 1.5h-.08l-.16-1.27h-1.81v9.36h.04zm14.94-4.66c0 3.09 2.02 4.89 4.6 4.89 1.18 0 2.3-.41 3.19-1l-.75-1.36c-.69.45-1.37.69-2.17.69-1.5 0-2.57-.95-2.76-2.64h5.94c.05-.23.09-.61.09-1.03 0-2.6-1.33-4.43-3.86-4.43-2.19-.01-4.3 1.85-4.3 4.9zm2.11-.83c.19-1.56 1.14-2.37 2.24-2.37 1.27 0 1.9.9 1.9 2.37h-4.15zm11.1 5.5h1.73l.19-.95h.05c.78.76 1.69 1.19 2.55 1.19 2.07 0 4-1.85 4-5.05 0-2.86-1.36-4.74-3.69-4.74-.95 0-1.92.47-2.7 1.16l.05-1.56v-3.46H128v13.43h-.013zm2.19-2.36v-4.35c.71-.7 1.36-1.04 2.06-1.04 1.4 0 2.02 1.11 2.02 2.97 0 2.11-.96 3.22-2.19 3.22-.56-.02-1.23-.23-1.89-.79zm7.75 4.3l-.41 1.71c.34.12.7.2 1.21.2 2.03 0 3.01-1.31 3.79-3.42l3.38-9.76h-2.11l-1.41 4.59c-.24.83-.47 1.77-.7 2.62h-.08c-.29-.87-.55-1.81-.82-2.62l-1.62-4.59h-2.23l3.67 9.23-.17.59c-.3.94-.87 1.6-1.86 1.6-.22 0-.49-.07-.66-.13zm14.83-7.05l.44-1.52c.4-1.31.75-2.72 1.1-4.1h.07c.36 1.37.74 2.8 1.12 4.11l.44 1.53h-3.19zm4.63 5.11h2.34l-4.06-12.44h-2.6L149 243.89h2.267l.964-3.362h4.17l.97 3.364zm3.18 0h2.19v-6.53c.71-.78 1.39-1.16 1.95-1.16.99 0 1.44.58 1.44 2.11v5.58h2.19v-6.53c.71-.78 1.37-1.16 1.95-1.16.96 0 1.42.58 1.42 2.11v5.58h2.2v-5.86c0-2.36-.92-3.71-2.9-3.71-1.19 0-2.11.72-3.01 1.67-.44-1.04-1.21-1.66-2.59-1.66-1.16 0-2.07.67-2.85 1.5h-.08l-.16-1.28h-1.81v9.36h.04zm15.15-2.51c0 1.64 1.14 2.74 2.77 2.74 1.1 0 2.06-.54 2.89-1.25h.05l.17 1.03h1.78v-5.54c0-2.6-1.15-4.04-3.48-4.04-1.49 0-2.8.58-3.82 1.22l.79 1.46c.82-.49 1.69-.91 2.62-.91 1.25 0 1.66.84 1.69 1.83-3.81.43-5.49 1.49-5.49 3.48zm2.13-.17c0-.93.83-1.6 3.36-1.91v2.1c-.69.66-1.28 1.03-2.04 1.03-.78-.01-1.33-.37-1.33-1.21zm6.99 2.69h7.31v-1.74h-4.55l4.39-6.42v-1.16h-6.66v1.74h3.92l-4.42 6.43v1.18zm7.89-4.66c0 3.09 2.02 4.89 4.6 4.89 1.18 0 2.3-.41 3.19-1l-.74-1.36c-.69.44-1.37.69-2.16.69-1.5 0-2.57-.95-2.76-2.64h5.94c.05-.23.09-.61.09-1.03 0-2.6-1.33-4.43-3.86-4.43-2.19-.01-4.3 1.85-4.3 4.9zm2.11-.83c.2-1.56 1.15-2.37 2.24-2.37 1.28 0 1.9.9 1.9 2.37h-4.15zm7.06.84c0 3.09 2.02 4.89 4.6 4.89 1.18 0 2.3-.42 3.19-1l-.75-1.37c-.69.44-1.37.69-2.17.69-1.5 0-2.57-.95-2.76-2.64h5.94c.05-.23.09-.61.09-1.03 0-2.6-1.33-4.43-3.86-4.43-2.19-.01-4.3 1.85-4.3 4.9zm2.11-.83c.2-1.56 1.15-2.37 2.24-2.37 1.27 0 1.9.9 1.9 2.37H204zm11.26 5.5h7.36v-1.86h-5.16v-10.58h-2.21v12.44zm8.44-2.52c0 1.64 1.14 2.74 2.77 2.74 1.11 0 2.06-.55 2.89-1.25h.05l.17 1.03h1.78v-5.54c0-2.61-1.15-4.04-3.48-4.04-1.49 0-2.8.57-3.82 1.21l.79 1.46c.82-.49 1.69-.91 2.62-.91 1.25 0 1.66.84 1.69 1.83-3.81.43-5.49 1.49-5.49 3.48zm2.13-.17c0-.94.83-1.6 3.36-1.92v2.1c-.69.65-1.28 1.03-2.03 1.03-.79-.01-1.33-.38-1.33-1.21zm7.74 2.68h1.73l.19-.95h.05c.78.76 1.7 1.19 2.56 1.19 2.07 0 4-1.85 4-5.05 0-2.87-1.36-4.74-3.69-4.74-.96 0-1.92.47-2.7 1.16l.05-1.56v-3.46h-2.2v13.43zm2.19-2.36v-4.35c.71-.7 1.36-1.04 2.05-1.04 1.41 0 2.02 1.11 2.02 2.97 0 2.12-.95 3.22-2.19 3.22-.56-.02-1.22-.23-1.89-.79zm7.04 1.29c.91.75 2.27 1.29 3.54 1.29 2.36 0 3.64-1.29 3.64-2.89 0-1.74-1.41-2.36-2.69-2.84-1.01-.36-1.94-.66-1.94-1.39 0-.58.44-1.03 1.36-1.03.75 0 1.41.33 2.06.8l1-1.33c-.75-.58-1.81-1.12-3.1-1.12-2.1 0-3.4 1.16-3.4 2.8 0 1.57 1.4 2.27 2.62 2.73.99.37 2 .71 2 1.5 0 .65-.47 1.12-1.49 1.12-.95 0-1.75-.4-2.6-1.04l-1.015 1.42z" fill="#504E41"/><path d="M8.456 108.143c-5.055 0-7.492.95-7.492 4.092v63.322c0 6.41 1.525 10.645 10.098 3.687 15.1-12.52 34.11-28.26 48.39-40.09 12.144-10.073 9.056-30.998-31.257-30.998-10.136-.013-14.684-.013-19.74-.013zm22.098 51.4c-4.665 3.675-9.85 5.447-9.85-2.383v-36.08c0-3.738 5.08-7.49 11.57-7.49 6.488 0 13.615 6.892 13.615 19.06 0 8.314 1.98 12.55-15.34 26.894zm1.68 17.12c2.815-2.33 5.642-4.676 8.43-6.982 3.74-2.97 11.362-.74 11.362 18.12s-8.065 24.51-14.984 24.51c-2.645 0-5.85-.1-8.807-1.04-4.782-1.49-8.886-5.14-8.886-13.94 0-7.03 5.91-14.86 12.88-20.65zm44.3 9.773c0 27.22-29.316 32.678-38.124 32.678H5.733c-5.38 0-4.77-2.71-4.77-8.17 0-13.198 2.23-13.837 11.767-21.654 9.876-8.183 21.042-17.433 31.348-25.98 16.065-13.07 32.456 3.452 32.456 23.126zm164.77-32.43c18.162-15.035 24.963-15.23 28.585-15.23 3.62 0 8.84 3.126 8.84 8.846 0 4.13-.95 6.176-17.96 20.183-2.8 2.41-2.15 4.364-.43 9.08 13.94 36.744 29.96 53.708 34.04 57.187 4.08 3.478 8.84 2.684 8.84 6.123 0 3.44-4.95 3.4-10.22 3.4-29.76 0-48.78-50.045-50.39-55.152-1.61-5.107-2.82-3.283-4.63-1.81-3.34 2.396-3.55 3.347-3.55 7.256v18.38c0 1.83-.29 6.81-10.22 6.81-9.93 0-9.54-5.14-9.54-6.82 0-7.38 1.18-7.34-5.02-2.19-3.7 3.07-10.97 8.99-18.13 8.99-7.16 0-7.98-7.25-10.92-7.25-2.95 0-6.42 7.24-17.67 7.24s-18.38-6.27-18.38-16.83c0-4.95-3.56-1.33-8.16 2.35-2.62 2.1-5.54 4.08-9.61 7.46-12.94 10.72-46.91 12.68-46.91-22.93s27.44-46.97 36.77-46.97c9.33 0 15.12 4.52 18.38 8.17 3.26 3.65 3.31 8.74-1.03 12.13-9.84 8.15-20.9 17.31-31.06 25.74 2.24 16.81 13.55 28.88 30.63 14.71 14.05-11.65 30.29-25.1 42.83-35.48 5.05-4.24 4.25-6.79 4.25-10.97 0-4.19-2.61-9.54-8.17-9.54-11.36 0-10.45 13.66-9.54 18.38.93 4.71-3.62 4.63-7.79 1.12-1.61-1.36-3.22-2.67-4.79-3.98-4.34-3.39-4.29-8.48-1.03-12.13 3.25-3.65 9.05-8.17 18.38-8.17 14.57 0 32.82 2.72 32.68 25.88-.07 11.64 0 30.46 0 36.77 0 9.14 7.54 3.2 10.26.95 4.34-3.69 4.04-4.2 4.04-8.45V108.1c0-3.57 1.05-6.125 8.85-6.125 7.79 0 10.89 1.2 10.89 4.09v45.62c0 7.79 3.49 5.04 6.81 2.3zm-60.6 18.815v31.86c0 2.71-2.215 6.13-6.124 6.13-3.91 0-10.893-3.71-10.893-16.2 0-13.83 6.945-18.88 10.124-21.43 7.34-6.1 6.9-3.06 6.9-.34zm-61.277-1.75c-3.83 3.18-7.7 6.39-11.518 9.54-5.24 4.12-6.19 1.58-6.19-2.34 0-15.41 8.73-27.23 16.34-27.23 3.89 0 6.12 4.37 6.12 9.54.01 5.18-.89 7.3-4.76 10.51zm119.205-11.31c2.918-2.42 6.15-5.09 9.563-7.92 5.525-4.55 11.48-6.33 11.48 3.98 0 6.61-1.382 10.5-6.32 14.63-4.964 4.17-9.967 8.26-14.814 12.28-1.77 1.48-4.06 2.88-4.06-3.75V167.4c.02-2.165-.13-4.054 4.16-7.638zm130.866-5.2c-4.404 3.65-4.977 5.6-4.977 10.78v46.3c0 3.36.08 7.49-10.21 7.49s-9.53-5.89-9.53-12.26.41-11.02-1.37-9.59c-2.04 1.67-9.38 7.84-17.77 14.82-12.94 10.73-46.9 12.68-46.9-22.93s27.44-46.97 36.77-46.97c9.33 0 15.13 4.52 18.39 8.17 3.26 3.65 3.31 8.75-1.03 12.13-9.83 8.16-20.9 17.32-31.06 25.75 2.24 16.81 13.55 28.88 30.63 14.71 3.69-3.05 7.52-6.23 11.39-9.43.63-.54.97-1.37.97-5.01v-40.17c0-4.82 5.04-6.81 10.89-6.81 5.85 0 8.85 1.42 8.85 6.81 0 5.38 2.4 4.9 5.37 2.39 12.94-10.58 24.75-6.03 28-2.38 3.26 3.65 2.63 10.79-1.7 14.18-1.56 1.3-3.18 2.62-4.79 3.97-4.17 3.52-8.21 3.66-7.79-1.12 1.68-19.54-8.1-15.78-14.08-10.79zm-51.27 16.51c-3.83 3.18-7.7 6.39-11.518 9.54-5.238 4.12-6.19 1.58-6.19-2.34 0-15.41 8.73-27.23 16.34-27.23 3.896 0 6.124 4.37 6.124 9.54.013 5.18-.886 7.3-4.756 10.51z" fill="#504E41"/><path d="M201.472 95.726c-.547-20.573-13.316-32.78-24.612-43.57-7.153-6.827-14.54-13.263-17.98-21.198-1.004-2.763-1.108-.574-1.2-19.622 0-.756.014.977.014-1.877 0-5.18-8.222-9.37-18.358-9.37-10.137 0-18.36 4.19-18.36 9.37 0 .8.04 1.04.04 1.73.17 19.06-.22 16.94-1.198 19.7-3.453 7.97-10.333 14.43-17.616 21.27-11.726 11.02-25.03 23.5-25.03 44.9 0 16.6 6.36 30.79 18.398 41.04 11.244 9.57 26.788 14.85 43.766 14.85 16.977 0 32.508-5.28 43.765-14.86 12.04-10.25 18.4-24.44 18.4-41.04 0-.45 0-.9-.02-1.34zM139.35 6.58c6.552 0 11.868 1.303 11.868 2.892 0 1.603-5.316 2.893-11.87 2.893-6.553 0-11.87-1.303-11.87-2.893 0-1.59 5.304-2.892 11.87-2.892zm23.256 83.583c-14.684 6.632-31.336 14.15-42.28 9.446l-.04.09c-2.84-1.38-5.732-2.86-8.716-4.49-12.378-6.74-21.25-8.97-27.036-6.78 2.958-13.57 12.652-22.69 22.072-31.53 7.44-6.99 15.14-14.22 19.114-23.42 1.563-3.6 1.785-6.41 1.785-15.85 0-.43.013-.36.013-.99 3.192 1.36 7.31 2.18 11.804 2.18 4.574 0 8.743-.85 11.96-2.25 0 .74-.025.82-.025 1.17 0 8.14.13 12.17 1.68 15.75 3.975 9.17 12.17 16.36 19.467 23.33 7.648 7.31 15.48 14.77 19.635 24.79-7.35-1.48-17.72 3.2-29.44 8.5z" fill="#504E41"/><path d="M195.036 95.987c.013.352-.143-3.857.026 1.068-.09 5.355-2.567 9.5-7.375 12.326-8.52 5.01-26.11 6.28-51.1-2.76 9.406-1.87 19.387-6.38 28.664-10.56 11.21-5.06 22.79-10.3 27.18-7.46 1.59 1.05 2.48 3.53 2.61 7.39z" fill="#40BBC3"/><path d="M92.22 124.964c-.937-1.628-1.262-3.674-.064-5.107.73-.873 8.157-8.065 42.84 9.51 13.76 6.972 24.392 10.53 32.952 10.985-8.17 3.96-17.85 6.163-28.6 6.163-20.794 0-37.602-8.17-47.127-21.55z" fill="#A2D1D1"/><path d="M186.632 124.717c-6.8 9.003-15.726 15.61-48.743-1.12-15.03-7.61-41.59-18.763-50.69-7.897-.02.013-.03.04-.04.052-1.96-4.82-3.16-10.097-3.46-15.712-.15-2.698 1.12-4.496 2.5-5.304 1.61-.925 7.01-2.176 22.28 6.15 17.18 9.355 34.07 15.53 48.86 17.837 4.43.69 8.62 1.03 12.52 1.03 8.47 0 15.62-1.616 21.05-4.795.4-.235.79-.482 1.17-.73-1.36 3.765-3.21 7.27-5.46 10.49z" fill="#C1E3D1"/></g></svg>