<svg enable-background="new 0 0 328.833 339.5" height="339.5" viewBox="0 0 328.833 339.5" width="328.833" xmlns="http://www.w3.org/2000/svg"><path d="m125.153 92.002c-4.358.097-6.393 3.128-6.078 6.793.413 4.817 3.455 5.941 4.841 8.687 3.095 6.122 1.173 9.252-.7 12.449-11.907 20.328.333 44-23.671 60.669-1.776 1.232-8.376 4.513-19.545-12.631 20.875 33.106 18.082 65.311 31.848 69.728 13.768 4.417 52.209 4.675 75.066-15.328s28.506-12.515 64.159-72.479c6.483-10.906 10.724-21.538 11.483-42.054-4.306 29.382-55.978 77.761-80.578 77.384-23.478-.358-17.485-36.501-36.271-53.944-17.958-16.675-14.04-20.271-12.76-31.779.385-3.458-2.764-7.606-7.794-7.495" fill="#f0e9e6"/><g fill="#fff"><path d="m120.526 68c1.947 0 3.526 1.856 3.526 4.147s-1.579 4.148-3.526 4.148-3.526-1.857-3.526-4.148 1.579-4.147 3.526-4.147"/><path d="m29.148 76c-2.291 0-4.148 1.764-4.148 3.94s1.857 3.94 4.148 3.94 4.15-1.764 4.15-3.94-1.859-3.94-4.15-3.94"/><path d="m23.282 68c-1.26 0-2.282 1.021-2.282 2.281s1.022 2.281 2.282 2.281 2.282-1.021 2.282-2.281-1.022-2.281-2.282-2.281"/><path d="m296.916 52.087c-14.615-1.574-14.838 18.697-14.838 18.697-2.503 1.087-11.484 2.595-16.559 12.03-8.129 15.118-2.685 29.179-10.879 48.416-7.758 18.215-16.711 28.256-16.711 28.256s-8.687-5.649-2.44-27.413c3.614-12.596 11.41-13.366 15.149-24.315 1.885-5.519-3.145-9.03-3.145-9.03s3.032-.757 4.116-4.69c1.435-5.214-2.507-6.915-2.507-6.915s2.445-2.824 5.087-5.894c4.534-5.273 9.646-12.334 3.94-14.736-6.658-2.803-7.363 6.206-8.369 13.104-.561 3.852-1.478 5.987-2.106 7.07 0 0-3.541-.486-5.217 2.368-2.822 4.808.221 8.081.221 8.081s-4.293-1.234-6.879 4.108c-3.293 6.81 1.853 10.409-6.345 29.148-11.991 27.416-45.769 21.725-57.7 52.167-5.995 15.293-10.791 27.373-17.221 31.729-6.432 4.354-15.409 1.77-21.633 4.674-6.222 2.902-11.804 16.793-20.744 11.296-6.646-4.087-1.105-22.386-11.256-42.312-9-17.666-18.667-18.332-27.987-37.238-6.472-13.127-9.53-25.603-11.734-31.652-8.085-22.191-15.682-20.636-18.375-19.986-3.288.794.107-14.461-8.57-9.123-7.624 4.693 7.016 8.9 5.414 10.277-11.565 9.948 9.698 11.855 19.444 34.514 2.616 6.084 5.656 13.121 7.212 20.597 5.539 26.622 20.038 37.37 25.846 60.944 3.312 13.443 2.177 24.75.722 27.623-.423.836-.505 1.633-.294 2.392h144.386c.369-.698.362-1.419-.09-2.165-1.063-1.752-5.978-11.654-4.837-30.946 1.259-21.235 13.601-46.858 24.673-70.735 13.81-29.786 10.823-49.357 32.873-65.061 5.388-3.839 2.192-8.469-3.323-6.894 3.151-7.353 21.372-17.235 10.676-18.386"/><path d="m103.237 265.998c4.08 1.2 8.719 2.759 8.719 8.839 0 5.56-4.199 8.519-11.158 8.519-5.239 0-8.559-1.601-8.559-1.601l1.2-4.358s3.24 1.399 7.239 1.399c3.559 0 5.639-1.2 5.639-3.56 0-2.799-2.959-3.56-6.199-4.479-3.959-1.119-8.118-3.039-8.118-8.479 0-6.078 4.758-8.278 10.757-8.278 4.88 0 8.199 1.52 8.199 1.52l-1.2 4.159s-2.719-1.118-6.559-1.118c-3.759 0-5.718 1.158-5.718 3.358 0 2.479 2.599 3.159 5.758 4.079"/><path d="m121.639 258.839v10.238c.52.04 1.76.08 4.039.08 4.04 0 5.999-2.199 5.999-5.359 0-3.319-2.039-5.237-5.759-5.237-1.52 0-2.999.118-4.279.278zm0 14.798v9.238h-5.639v-27.955c.52-.2 4.919-.92 9.718-.92 7.959 0 11.558 3.439 11.558 9.839 0 5.72-3.639 9.918-10.958 9.918-1.959 0-3.559-.041-4.679-.12z"/><path d="m147.639 254v19.557c0 3.48 2 4.719 6.199 4.719 2.919 0 5.239-.64 5.239-.64v4.56s-2.36.68-6.279.68c-8.238 0-10.798-3.359-10.798-9.318v-19.558z"/><path d="m171.238 270.598h7.279l-3.64-12.559zm-9.238 11.797 9.038-28.395h7.679l9.039 28.395h-5.839l-2.119-7.318h-9.839l-2.08 7.318z"/><path d="m201.239 265.998c4.079 1.2 8.718 2.759 8.718 8.839 0 5.56-4.199 8.519-11.158 8.519-5.238 0-8.558-1.601-8.558-1.601l1.198-4.358s3.24 1.399 7.24 1.399c3.56 0 5.639-1.2 5.639-3.56 0-2.799-2.959-3.56-6.198-4.479-3.959-1.119-8.12-3.039-8.12-8.479 0-6.077 4.76-8.277 10.758-8.277 4.881 0 8.199 1.52 8.199 1.52l-1.199 4.159s-2.72-1.118-6.559-1.118c-3.76 0-5.719 1.158-5.719 3.358 0 2.478 2.6 3.158 5.759 4.078"/><path d="m237.596 254v28.395h-5.639v-12.078h-11.318v12.078h-5.639v-28.395h5.639v11.559h11.318v-11.559z"/><path d="m99.315 305.938h6.551l-3.275-11.303zm-8.315 10.619 8.135-25.557h6.911l8.135 25.557h-5.255l-1.908-6.588h-8.855l-1.872 6.588z"/><path d="m118.328 291 3.959 17.458.504 3.455.54-3.455 3.852-16.163h5.183l3.815 16.163.504 3.347.576-3.384 3.96-17.421h5.327l-6.155 25.557h-6.264l-3.959-14.902-.432-2.196-.36 2.196-3.96 14.902h-6.263l-6.155-25.557z"/><path d="m154.315 305.938h6.552l-3.276-11.303zm-8.315 10.619 8.136-25.557h6.911l8.135 25.557h-5.256l-1.908-6.588h-8.855l-1.871 6.588z"/><path d="m181.675 294.104c-1.224 0-2.483.108-3.599.217v7.883c.54.036 1.943.072 3.168.072 4.104 0 5.902-.937 5.902-4.032 0-3.312-2.016-4.14-5.471-4.14zm-8.675-3.276c1.691-.324 5.111-.828 8.496-.828 7.27 0 10.727 2.34 10.727 8.062 0 4.068-1.765 6.336-5.184 7.344l2.268 4.283c.827 1.619 1.439 2.521 2.844 2.521.468 0 .791-.108.791-.108v3.707s-.756.469-2.303.469c-3.133 0-4.535-1.908-5.867-4.535l-2.881-5.651h-.684c-.936 0-2.124-.036-3.131-.073v9.971h-5.076z"/><path d="m202.075 294.284v17.89c1.008.107 2.159.143 3.276.143 4.535 0 7.127-2.41 7.127-9.178 0-6.191-2.125-9.035-7.164-9.035-1.08 0-2.231.072-3.239.18zm-5.075-3.456s4.066-.828 8.171-.828c9.897 0 12.419 5.473 12.419 13.139 0 7.775-2.809 13.282-12.49 13.282-4.393 0-8.1-.862-8.1-.862z"/><path d="m231.115 300.799c3.671 1.08 7.846 2.484 7.846 7.955 0 5.004-3.779 7.667-10.042 7.667-4.716 0-7.703-1.44-7.703-1.44l1.08-3.922s2.915 1.258 6.515 1.258c3.203 0 5.075-1.078 5.075-3.202 0-2.52-2.663-3.204-5.579-4.031-3.562-1.008-7.307-2.735-7.307-7.632 0-5.471 4.283-7.451 9.682-7.451 4.393 0 7.379 1.368 7.379 1.368l-1.078 3.743s-2.448-1.008-5.904-1.008c-3.383 0-5.146 1.045-5.146 3.024-.001 2.231 2.338 2.845 5.182 3.671"/><path d="m124.139 92.511s4.523-1.507 3.638-5.903c-1.218-6.046-5.795-4.821-7.043-3.629-1.93 1.842-2.07 4.496-1.29 6.536.802 2.1 4.695 2.996 4.695 2.996"/><path d="m292 54.85c13.224-8.268 27.047-46.161 7.156-40.221-9.424 2.813 7.206 18.78-7.156 40.221"/></g><path d="m183.236 195.431h37.068v37.069h-37.068z" fill="#f00"/><path d="m190.186 210.491h23.169v6.949h-23.169z" fill="#fff"/><path d="m198.296 202.381h6.949v23.169h-6.949z" fill="#fff"/></svg>