<svg id="Layer_1" data-name="Layer 1" xmlns="http://www.w3.org/2000/svg" viewBox="0 0 42.519 34.555">
  <defs>
    <style>
      .cls-1 {
        fill: #2ca9e1;
      }
    </style>
  </defs>
  <title>twitter</title>
  <path class="cls-1" d="M276.034,497.9a17.4,17.4,0,0,1-5.01,1.375,8.77,8.77,0,0,0,3.836-4.826,17.475,17.475,0,0,1-5.541,2.117,8.733,8.733,0,0,0-14.865,7.955,24.759,24.759,0,0,1-17.978-9.115,8.732,8.732,0,0,0,2.7,11.647,8.67,8.67,0,0,1-3.951-1.09v0.109a8.728,8.728,0,0,0,7,8.555,8.768,8.768,0,0,1-3.939.148,8.732,8.732,0,0,0,8.15,6.059,17.6,17.6,0,0,1-12.916,3.611,24.681,24.681,0,0,0,13.373,3.92c16.045,0,24.82-13.291,24.82-24.82,0-.379-0.01-0.754-0.027-1.127a17.7,17.7,0,0,0,4.353-4.518" transform="translate(-233.515 -493.813)"/>
</svg>
